# xmcd
#
# Track frame offsets:
#	150
#	10090
#	31429
#	50873
#	72194
#	103893
#	123217
#
# Disc length: 1848 seconds
#
# Revision: 0
# Processed by: cddbd v1.5.2PL0 Copyright (c) Steve Scherf et al.
# Submitted via: EasyCDDAExtractor 5.0.2.1
#
DISCID=5c073607
DTITLE=Various Artist - Klarafestival 2007!
DYEAR=2007
DGENRE=Chamber Music
TTITLE0=L.v. Beethoven, Bagatelle opus 33, Nr. 7 Presto [Antti Siirala]
TTITLE1=Intersection [Flat Earth Society]
TTITLE2=R. Schumann, Romanze nr 2 (Einfach, innig) from Drei Romanzen [Benjami
TTITLE2=n Dieltjens and Jan Michiels]
TTITLE3=F. Mendelssohn, Scherzo from A Midsummer Night's Dream [World Orchestr
TTITLE3=a For Peace]
TTITLE4=Lila [AKA Moon]
TTITLE5=C. Debussy, Feux d' artifice [Jan Michiels]
TTITLE6=About L.v. Beethoven, Bagatellen opus 119, Nr. 1 [Ha! alias Beethoven'
TTITLE6=s Jazz Family]
EXTD=
EXTT0=
EXTT1=
EXTT2=
EXTT3=
EXTT4=
EXTT5=
EXTT6=
PLAYORDER=
